<svg width="32" height="32" viewBox="0 0 32 32" fill="none" xmlns="http://www.w3.org/2000/svg">
<path d="M32 0H0V32H32V0Z" fill="#0052CC"/>
<path d="M8.67983 20.04C8.51983 20.32 8.3198 20.6 8.1998 20.88C8.0798 21.12 8.11981 21.44 8.35981 21.56L11.6398 23.6C11.8798 23.76 12.1998 23.68 12.3198 23.44C12.4398 23.2 12.5998 22.92 12.7998 22.64C14.1198 20.48 15.3998 20.76 17.7598 21.88L20.9998 23.44C21.2398 23.56 21.5598 23.44 21.6798 23.2L23.2398 19.68C23.3598 19.44 23.2398 19.12 22.9998 19C22.3198 18.68 20.9598 18.04 19.7198 17.44C15.3198 15.24 11.5598 15.36 8.67983 20.04Z" fill="url(#paint0_linear)"/>
<path d="M23.3998 11.9999C23.5598 11.7199 23.7598 11.4399 23.8798 11.1599C23.9998 10.9199 23.9598 10.5999 23.7198 10.4799L20.4398 8.43993C20.1998 8.27993 19.8798 8.35993 19.7598 8.59993C19.6398 8.83993 19.4798 9.11993 19.2798 9.39993C17.9598 11.5599 16.6798 11.2799 14.3198 10.1599L11.0798 8.59993C10.8398 8.47993 10.5198 8.59993 10.3998 8.83993L8.8398 12.3599C8.7198 12.5999 8.83979 12.9199 9.07979 13.0399C9.75979 13.3599 11.1198 13.9999 12.3598 14.5999C16.7598 16.8399 20.5198 16.6799 23.3998 11.9999Z" fill="url(#paint1_linear)"/>
<defs>
<linearGradient id="paint0_linear" x1="23.1806" y1="24.617" x2="13.2526" y2="18.9122" gradientUnits="userSpaceOnUse">
<stop stop-color="white" stop-opacity="0.5"/>
<stop offset="1" stop-color="white"/>
</linearGradient>
<linearGradient id="paint1_linear" x1="8.89052" y1="7.43665" x2="18.8186" y2="13.1415" gradientUnits="userSpaceOnUse">
<stop stop-color="white" stop-opacity="0.5"/>
<stop offset="1" stop-color="white"/>
</linearGradient>
</defs>
</svg>
